<svg version="1.1" xmlns="http://www.w3.org/2000/svg" xmlns:xlink="http://www.w3.org/1999/xlink">

    <!-- STREAM ICON IN LIVETAB:E -->
    <symbol id="liveStramLiveTable" viewBox="0 0 38 14">
        <path fill="#ff0046" d="M0 0H38V14H0z"/>
        <path fill="#ffffff" d="M5.91 10.105c.354 0 .65-.045.885-.136.236-.091.447-.222.635-.39.166-.155.296-.342.388-.563.093-.222.139-.446.139-.672 0-.362-.092-.667-.277-.914-.185-.248-.478-.433-.88-.555-.155-.047-.352-.098-.59-.154-.236-.056-.437-.106-.6-.15-.248-.068-.437-.175-.567-.321-.13-.146-.195-.342-.195-.59 0-.273.11-.494.332-.662.221-.168.511-.252.87-.252.318 0 .622.063.91.19.29.126.527.274.712.443h.058v-.926c-.247-.12-.516-.212-.806-.277-.29-.065-.598-.098-.924-.098-.57 0-1.04.16-1.406.479-.367.319-.551.714-.551 1.185 0 .227.033.427.1.6.066.173.16.323.279.451.122.13.263.236.422.316.159.081.338.148.539.2.224.057.41.102.558.136.149.034.313.077.493.13.25.07.432.178.546.323.115.146.172.335.172.567 0 .292-.109.527-.328.705-.219.178-.541.268-.969.268-.299 0-.61-.066-.933-.198-.323-.131-.612-.317-.867-.556H4v.968c.26.128.538.235.834.323.296.087.654.13 1.076.13zM11.08 10V4.871h1.953v-.687h-4.68v.687h1.953V10h.774zm3.512 0V7.687h.883L17.318 10h1.004l-2.07-2.531c.372-.138.666-.35.882-.637.217-.286.325-.643.325-1.07 0-.305-.06-.56-.178-.766-.119-.206-.28-.374-.483-.504-.203-.133-.417-.217-.642-.254-.225-.036-.505-.054-.838-.054h-1.5V10h.773zm.68-2.957h-.68V4.848h.766c.216 0 .397.015.543.045.146.03.273.081.383.154.125.083.217.19.277.322.06.132.09.282.09.451 0 .203-.027.38-.08.532-.053.15-.136.28-.248.39-.125.123-.276.203-.453.242-.177.04-.377.059-.598.059zM22.62 10v-.688h-2.864v-2.16h2.668v-.687h-2.668V4.87h2.864v-.687h-3.637V10h3.637zm1.203 0l.528-1.625h2.222L27.101 10h.816l-1.96-5.816h-.954L23.043 10h.78zm2.536-2.285h-1.793l.894-2.742.899 2.742zM29.39 10V4.988l1.504 3.41h.468l1.516-3.41V10h.773V4.184h-1.074l-1.402 3.238-1.453-3.238h-1.055V10h.723z"/>
        <path fill="#ffffff" d="M5.91 10.105c.354 0 .65-.045.885-.136.236-.091.447-.222.635-.39.166-.155.296-.342.388-.563.093-.222.139-.446.139-.672 0-.362-.092-.667-.277-.914-.185-.248-.478-.433-.88-.555-.155-.047-.352-.098-.59-.154-.236-.056-.437-.106-.6-.15-.248-.068-.437-.175-.567-.321-.13-.146-.195-.342-.195-.59 0-.273.11-.494.332-.662.221-.168.511-.252.87-.252.318 0 .622.063.91.19.29.126.527.274.712.443h.058v-.926c-.247-.12-.516-.212-.806-.277-.29-.065-.598-.098-.924-.098-.57 0-1.04.16-1.406.479-.367.319-.551.714-.551 1.185 0 .227.033.427.1.6.066.173.16.323.279.451.122.13.263.236.422.316.159.081.338.148.539.2.224.057.41.102.558.136.149.034.313.077.493.13.25.07.432.178.546.323.115.146.172.335.172.567 0 .292-.109.527-.328.705-.219.178-.541.268-.969.268-.299 0-.61-.066-.933-.198-.323-.131-.612-.317-.867-.556H4v.968c.26.128.538.235.834.323.296.087.654.13 1.076.13zM11.08 10V4.871h1.953v-.687h-4.68v.687h1.953V10h.774zm3.512 0V7.687h.883L17.318 10h1.004l-2.07-2.531c.372-.138.666-.35.882-.637.217-.286.325-.643.325-1.07 0-.305-.06-.56-.178-.766-.119-.206-.28-.374-.483-.504-.203-.133-.417-.217-.642-.254-.225-.036-.505-.054-.838-.054h-1.5V10h.773zm.68-2.957h-.68V4.848h.766c.216 0 .397.015.543.045.146.03.273.081.383.154.125.083.217.19.277.322.06.132.09.282.09.451 0 .203-.027.38-.08.532-.053.15-.136.28-.248.39-.125.123-.276.203-.453.242-.177.04-.377.059-.598.059zM22.62 10v-.688h-2.864v-2.16h2.668v-.687h-2.668V4.87h2.864v-.687h-3.637V10h3.637zm1.203 0l.528-1.625h2.222L27.101 10h.816l-1.96-5.816h-.954L23.043 10h.78zm2.536-2.285h-1.793l.894-2.742.899 2.742zM29.39 10V4.988l1.504 3.41h.468l1.516-3.41V10h.773V4.184h-1.074l-1.402 3.238-1.453-3.238h-1.055V10h.723z"/>
    </symbol>

    <!-- SHIELD ICON FOR TEAM -->
    <symbol id="shield" viewBox="0 0 24 24" fill="currentColor">
        <path d="m18.993 0 3.558 3.536v11.95L14.018 24H9.565L1 15.487V3.537L4.568 0h14.425zm-.34.82H4.907L1.821 3.88v11.267l8.083 8.034h3.775l8.051-8.034V3.88L18.654.82zm-.68 1.659 2.09 2.082v10.216l-6.759 6.743h-3.032l-6.784-6.743V4.56l2.104-2.082h12.38zm-.34.82H5.93L4.309 4.903v9.533L10.61 20.7h2.355l6.277-6.263V4.903l-1.61-1.604zm-.051 5.146v1.162l-7.9 7.897-.58-.581 8.48-8.478zm-.551-3.456.58.581L7.68 15.5l-.581-.58 9.932-9.93zm-2.84-.042-8.218 8.216v-1.16l7.056-7.056h1.162z"/>
    </symbol>

    <!-- TOURNAMENT TABLE ICONS -->
    <symbol id="tournamentTableSimplified" fill="currentColor" viewBox="0 0 16 16">
        <path d="M16 11.8V13H0v-1.2h16zm0-4.4v1.2H0V7.4h16zM16 3v1.2H0V3h16z"/>
    </symbol>

    <symbol id="tournamentTableOverflow" fill="currentColor" viewBox="0 0 16 16">
        <path d="M0 8.6h11.2V7.4H0z"/>
        <path d="M0 4.2h11.2V3H0z"/>
        <path d="M0 13h11.2v-1.2H0zM12.8 8.6H16V7.4h-3.2zM12.8 4.2H16V3h-3.2zM12.8 13H16v-1.2h-3.2z"/>
    </symbol>

    <!-- ATTENDANCE ICONS -->
    <symbol id="attendance" viewBox="0 0 16 16" fill="currentColor">
        <path d="M14.906 14.907h-1.67v-1.06l-.96-.97-2.271-.567c.942-1.143 1.333-3.094.83-4.523-.217-.616-.583-1.1-1.065-1.431l-.019-.06c-.22-.885-.11-1.75.289-2.26.28-.358.709-.542 1.273-.542.777 0 1.292.346 1.532 1.028.366 1.04-.022 2.615-.8 3.24l-.204.164v.999l2.718.678.347.352v4.952zm-3.593 0H3.858v-.61l.428-.434 3.044-.759v-1.04l-.204-.164c-.901-.723-1.352-2.546-.93-3.75.284-.803.891-1.21 1.805-1.21.913 0 1.52.406 1.803 1.21.423 1.204-.029 3.026-.929 3.75l-.204.165v1.039l3.043.76.428.433v.61h-.83zm-10.22 0V9.955l.348-.352 2.718-.678v-.999l-.203-.164c-.778-.625-1.166-2.2-.8-3.24.24-.682.755-1.028 1.532-1.028.563 0 .992.184 1.273.543.397.509.509 1.374.289 2.257l-.019.063c-.482.33-.849.814-1.065 1.431-.504 1.429-.112 3.38.83 4.522l-2.271.567-.96.97v1.06H1.094zM6.966 1.5c.234-.27.583-.407 1.036-.407.456 0 .807.14 1.042.416.307.36.427.967.335 1.632-.074.075-.143.15-.2.222-.498.638-.705 1.553-.601 2.533-.185-.03-.376-.05-.576-.05-.201 0-.392.02-.578.05.104-.98-.103-1.895-.6-2.533-.059-.073-.13-.15-.205-.226-.09-.67.037-1.28.347-1.637zm8.156 7.118l-1.923-.481c.812-1.038 1.126-2.707.678-3.979-.393-1.116-1.327-1.756-2.563-1.756-.31 0-.581.04-.823.105-.037-.669-.241-1.269-.614-1.706C9.43.277 8.782 0 8.001 0c-.773 0-1.417.27-1.862.784-.38.438-.594 1.043-.633 1.722-.24-.064-.51-.104-.818-.104-1.236 0-2.17.64-2.564 1.756-.448 1.272-.134 2.941.68 3.979l-1.925.48L0 9.505V16h16V9.504l-.88-.886z" />
    </symbol>

    <symbol id="throphy" viewBox="0 0 12.1 13" fill="currentColor">
        <path d="m1.9 0v1.2h-1.9v3.3l1.9 1.9 1.9 1.9v1.4l-1.9 1v2.3h8.2v-2.2l-1.9-1v-1.4l1.9-1.9 1.9-1.9v-3.4h-1.9v-1.2zm1 2.4h6.3v-1.4h-6.3zm7.2-.2h1v2l-1 1zm-9.1 1.9v-2h1v3zm1.9 2v-2.7h6.3v2.7l-2 1.9h-2.4zm0 5.3 1.9-1v-1.4h2.4v1.5l1.9 1v.7h-6.2z"
              fill-rule="evenodd"/>
    </symbol>

    <symbol id="odds" viewBox="0 0 19.4 20" fill="currentColor">
        <path d="m6.9 14.4h.1s.1 0 .1.1l.8.8s0 .1.1.1v.1 1.1.1s0 .1-.1.1l-3 1.9v.1.2h3v1h-3.9v-1.6-.1s0-.1.1-.1l3-1.9s0 0 0-.1v-.6c0-.1 0-.1-.1-.1 0 0-.1-.1-.1-.1h-2.9v-.9zm2.8 4.6v.9h-.9v-.9zm3.8-4.6h.1s.1 0 .1.1l.8.8s0 .1.1.1v.1 3.4.1s0 .1-.1.1l-.8.8s-.1 0-.1.1h-.1-1.9-.1s-.1 0-.1-.1l-.8-.8s0-.1-.1-.1v-.1-3.4-.1s0-.1.1-.1l.8-.8s.1 0 .1-.1h.1zm4.8 0h.1s.1 0 .1.1l.8.8s0 .1.1.1v.1 3.4.1s0 .1-.1.1l-.8.8s-.1 0-.1.1h-.1-1.9-.1s-.1 0-.1-.1l-.8-.8s0-.1-.1-.1v-.1-3.4-.1s0-.1.1-.1l.8-.8s.1 0 .1-.1h.1zm-4.9 1h-1.7c-.1 0-.1 0-.1.1 0 0-.1.1-.1.1v3.3c0 .1 0 .1.1.1 0 0 .1.1.1.1h1.7c.1 0 .1 0 .1-.1 0 0 .1-.1.1-.1v-3.3c0-.1 0-.1-.1-.1 0-.1 0-.1-.1-.1zm4.8 0h-1.7c-.1 0-.1 0-.1.1 0 0-.1.1-.1.1v3.3c0 .1 0 .1.1.1 0 0 .1.1.1.1h1.7c.1 0 .1 0 .1-.1 0 0 .1-.1.1-.1v-3.3c0-.1 0-.1-.1-.1 0-.1 0-.1-.1-.1zm-15.1 1.3v.9h-3.1v-.9zm3.8-9.4h.1s.1 0 .1.1l.8.8s0 .1.1.1v.1 3.4.1s0 .1-.1.1l-.8.8s-.1 0-.1.1h-.1-1.9-.1s-.1 0-.1-.1l-.8-.8s0-.1-.1-.1v-.1-3.4-.1s0-.1.1-.1l.8-.8s.1 0 .1-.1h.1zm2.8 4.6v.9h-.9v-.8zm4.4-4.6c.1 0 .1 0 0 0v.9h-2.6v1.3h2 .1s.1 0 .1.1l.8.8s0 .1.1.1v.1 1.1.1s0 .1-.1.1l-.8.8s-.1 0-.1.1h-.1-2.9v-.8h2.9c.1 0 .1 0 .1-.1 0 0 .1-.1.1-.1v-1c0-.1 0-.1-.1-.1 0 0-.1-.1-.1-.1h-2.9v-3.3zm4.2 0h.1s.1 0 .1.1l.8.8s0 .1.1.1v.1 3.4.1s0 .1-.1.1l-.8.8s-.1 0-.1.1h-.1-1.9-.1s-.1 0-.1-.1l-.8-.8s0-.1-.1-.1v-.1-3.4-.1s0-.1.1-.1l.8-.8s.1 0 .1-.1h.1zm-11.5.9h-1.7c-.1 0-.1.1-.2.1 0 0-.1.1-.1.1v3.3c0 .1 0 .1.1.1 0 0 .1.1.1.1h1.7c.1 0 .1 0 .1-.1s.2 0 .2-.1v-3.3c0-.1 0-.1-.1-.1 0 0 0-.1-.1-.1zm11.4 0h-1.7c-.1 0-.1 0-.1.1 0 0-.1.1-.1.1v3.3c0 .1 0 .1.1.1 0 0 .1.1.1.1h1.7c.1 0 .1 0 .1-.1s.1-.1.1-.1v-3.3c0-.1 0-.1-.1-.1 0 0 0-.1-.1-.1zm-12.9-8.2h.1s.1 0 .1.1l.8.8s0 .1.1.1v.1 3.5h1.5v.9h-4v-.8h1.5v-3.5c0-.1 0-.1-.1-.1s0-.1 0-.1h-1.4v-1zm6.7 0-2.2 5.6s0 0-.1 0h-1l2.3-5.6h.1zm3.8 0h.1s.1 0 .1.1l.8.8s0 .1.1.1v.1 1.1.1s0 .1-.1.1l-3 1.9v.1.2h3v.9h-4v-1.5-.1s0-.1.1-.1l3-1.9s0 0 0-.1v-.6c0-.1 0-.1-.1-.1 0 0-.1-.1-.1-.1h-2.9v-1z"/>
    </symbol>

    <symbol id="phone" viewBox="0 0 12.9 22" fill="currentColor">
        <path d="m10.2 0 2.7 2.7v16.6l-2.7 2.7h-7.5l-2.7-2.7v-16.6l2.7-2.7zm-.7 1.5h-6.2l-1.8 1.8v15.3l1.8 1.8h6.2l1.8-1.8v-15.3zm-1.6 15.6v1.5h-3v-1.5z"/>
    </symbol>

    <symbol id="shape" viewBox="0 0 613 173" fill="currentColor">
        <path d="m479.9 12.8c-7-7-21-12.8-31.5-12.8h-283.8c-10.5 0-24.5 5.8-31.5 12.8l-120.3 118.7c-7 7-12.8 21-12.8 31.4v10h146.3c1.9-14.3 14-25 29-25h263.5c15 0 27.1 10.7 29 25h145.2v-10c0-10.5-5.8-24.4-12.8-31.4z"/>
    </symbol>

    <symbol id="hide-password" viewBox="0 0 20 20" fill="currentColor">
        <path d="m13.458 13.835c1.05-.949 1.725-2.307 1.725-3.831 0-1.18-.411-2.255-1.076-3.128l.318-.32c1.69.767 3.112 1.949 4.01 3.448-1.065 1.778-2.86 3.117-4.977 3.831zm-11.894-3.832c1.066-1.78 2.86-3.118 4.978-3.832-1.052.95-1.725 2.308-1.725 3.833 0 1.198.425 2.288 1.11 3.166l-.301.304c-1.713-.766-3.155-1.957-4.062-3.471zm4.623 0a3.817 3.817 0 0 1 3.813-3.811c.808 0 1.555.257 2.173.686l-1.52 1.533a1.722 1.722 0 0 0 -2.243 2.259l-1.518 1.529a3.784 3.784 0 0 1 -.706-2.194zm7.626 0c0 2.102-1.711 3.812-3.813 3.812a3.8 3.8 0 0 1 -2.133-.653l1.537-1.548c.187.068.385.111.596.111.95 0 1.724-.771 1.724-1.721 0-.216-.044-.42-.118-.61l1.534-1.544c.423.614.673 1.354.673 2.154zm6.014-.323c-.95-1.775-2.507-3.197-4.383-4.15l3.24-3.264-.974-.966-3.62 3.648a12.142 12.142 0 0 0 -4.09-.724c-4.198 0-8.056 2.14-9.827 5.455l-.173.324.173.323c.957 1.79 2.534 3.222 4.432 4.175l-3.133 3.157.973.965 3.52-3.545c1.266.446 2.626.705 4.035.705 4.197 0 8.055-2.141 9.827-5.456l.173-.323z"/>
    </symbol>

    <symbol id="show-password" viewBox="0 0 20 20" fill="currentColor">
        <path d="M10 4.2c4.197 0 8.055 2.142 9.827 5.456L20 9.98l-.173.323c-1.772 3.315-5.63 5.456-9.827 5.456-4.198 0-8.056-2.14-9.827-5.457L0 9.98l.173-.324C1.945 6.341 5.803 4.2 10 4.2zm3.458 1.947c1.05.95 1.725 2.308 1.725 3.833 0 1.524-.674 2.883-1.725 3.832 2.117-.715 3.912-2.054 4.978-3.832-1.066-1.779-2.86-3.118-4.978-3.833zm-6.916 0C4.425 6.861 2.63 8.2 1.564 9.98c1.066 1.779 2.86 3.118 4.978 3.833-1.05-.95-1.725-2.308-1.725-3.832 0-1.525.674-2.882 1.725-3.833zm3.458.02A3.817 3.817 0 0 0 6.187 9.98c0 2.101 1.711 3.812 3.813 3.812a3.817 3.817 0 0 0 3.813-3.812A3.817 3.817 0 0 0 10 6.167zm0 2.09c.95 0 1.723.773 1.723 1.723a1.724 1.724 0 0 1-3.446 0c0-.95.773-1.723 1.723-1.723z"/>
    </symbol>

    <symbol id="play" viewBox="0 0 15 17.5" fill="currentColor">
        <path clip-rule="evenodd" d="m15 8.8-15 8.7v-17.5z" fill="#fff" fill-rule="evenodd"/>
    </symbol>

    <symbol id="thumbUp" viewBox="0 0 25 24" fill="currentColor">
        <path fill-rule="evenodd" d="m13.6719-.00012207h-3.74106l-.00084 5.85852207-3.6576 3.6576-.4956.00025v-2.06833h-5.7768v16.53598h5.7768v-1.6564l.5856-.0003 2.48499 1.6571h10.42531l2.898-2.898 1.8839-9.3638-3.0335-3.03342-5.3143-.00108.0008-5.63383zm-9.5343 20.68922207h-.00756v1.6392h.00756v.0157h-2.4984v-13.2576h2.4984v.43067l-.00756.00001v1.63922h.00756zm1.6392 0h1.08429l2.48211 1.6549h9.2496l2.0688-2.0688 1.6128-8.0148-1.9332-1.9332-6.2728.0011-.0008-6.7799-1.2732-1.9104h-1.2252l.0008 4.90057-4.61767 4.61773h-1.17553z"/>
    </symbol>

    <symbol id="field" viewBox="0 0 24 18" fill="currentColor">
        <path fill-rule="evenodd" d="m20.688 10.9488h1.6656v-3.32162h-1.6656zm-.348 5.3808h-7.5168v-2.9676c1.8996-.3828 3.3348-2.0628 3.3348-4.07402 0-2.0112-1.4352-3.6912-3.3348-4.0752v-2.9664h7.5168l2.0136 2.0088v1.7256h-3.312v6.61442h3.312v1.7244zm-18.6936-2.01v-1.7244h3.312v-6.61442h-3.312v-1.7256l2.0136-2.0088h7.5156v2.9664c-1.8996.384-3.3336 2.064-3.3336 4.0752 0 2.01122 1.434 3.69122 3.3336 4.07402v2.9676h-7.5156zm0-3.3708h1.6644v-3.32162h-1.6644zm11.1768-4.00562c.9768.3444 1.6884 1.2516 1.6884 2.3448 0 1.09322-.7116 2.00042-1.6884 2.34482zm-1.6476 4.68842c-.9756-.3432-1.6872-1.2504-1.6872-2.34362 0-1.0932.7116-2.0004 1.6872-2.3448zm9.8448-11.031624h-18.042l-2.9784 2.972404v11.43002l2.9784 2.9736h18.042l2.9796-2.9736v-11.43002z"/>
    </symbol>

    <symbol id="shield2" viewBox="0 0 24 24" fill="currentColor">
        <path fill-rule="evenodd" d="m.720215 2.964 2.965195-2.964h16.41479l2.9652 2.964v12.2748l-8.7624 8.7612h-4.82038l-8.762405-8.7612zm1.641595 10.2979 11.62269-11.6227h-9.61989l-2.0028 2.0052zm13.96149-11.6227.0018.0018-13.44041 13.4404 1.95162 1.9523 14.98889-14.99008-.4042-.40442zm-8.53232 18.35-1.78485-1.7854 14.98927-14.98925.4296.42985v2.7108zm1.17039 1.1708 1.20043 1.2008h3.462l7.8012-7.8024v-5.86308z" />
    </symbol>

    <symbol id="news" viewBox="0 0 24 24" fill="currentColor">
        <path d="m5.00422 4.16403 2.96042-2.96402h11.87526l2.9592 2.96402v15.67207l-2.9592 2.964h-6.5772-.8268-8.8717l-2.364-2.964v-10.26963h3.80402zm1.6381 8.70607v6.9576l-1.3488 1.3332h7.14248.8268 5.9004l1.9992-2.004v-14.31367l-1.9992-2.00401h-10.52167l-1.99921 2.00401v5.95807zm-3.80507-1.6639v7.9512l1.06289 1.0626 1.10432-1.0782v-6.2712-1.6644zm5.46656-4.59779h11.19849v-1.63921h-11.19849zm11.19849 4.14139h-11.19849v-1.63919h11.19849zm-11.19849 4.1403h11.19849v-1.6393h-11.19849zm0 4.1414h11.19849v-1.6393h-11.19849z"/>
    </symbol>

    <symbol id="pcPhone" viewBox="0 0 24 24" fill="currentColor">
        <path fill-rule="evenodd" d="m1.27332 14.844v-13.64399h21.47158v4.1388h-1.6392v-2.4996h-18.19318v10.36439h8.70238v1.6404zm11.98068 8.6915h10.746v-16.53961h-10.746zm1.6404-1.638h7.4664v-13.26361h-7.4664zm-14.8944-3.7896h11.6148v-1.638h-11.6148z"/>
    </symbol>

    <symbol id="versus" viewBox="0 0 40 32" fill="currentColor">
        <path d="M7.243 3.03A4 4 0 0 1 11.123 0h23.754a4 4 0 0 1 3.88 4.97l-6 24a4 4 0 0 1-3.88 3.03H5.123a4 4 0 0 1-3.88-4.97l6-24Z" fill="var(--color-combination-8)"/>
        <path d="M17.361 20h-1.716l-2.951-8.437h1.651l2.197 6.474 2.197-6.474h1.56L17.361 20Zm7.393-1.209c.477 0 .84-.1 1.092-.299.251-.2.377-.485.377-.858 0-.303-.1-.546-.299-.728-.2-.19-.537-.32-1.014-.39l-.663-.104c-.919-.147-1.595-.438-2.028-.871-.433-.442-.65-.997-.65-1.664 0-.763.269-1.36.806-1.794.537-.433 1.248-.65 2.132-.65.858 0 1.56.204 2.106.611.546.407.901 1.005 1.066 1.794h-1.703c-.087-.373-.256-.641-.507-.806-.251-.165-.568-.247-.949-.247-.416 0-.741.091-.975.273-.234.182-.351.438-.351.767 0 .58.468.949 1.404 1.105l.663.104c.893.139 1.547.425 1.963.858.425.433.637.988.637 1.664 0 .815-.282 1.447-.845 1.898-.555.45-1.304.676-2.249.676-.919 0-1.686-.221-2.301-.663-.607-.45-.97-1.07-1.092-1.859h1.677c.095.373.286.663.572.871.286.208.663.312 1.131.312Z"/>
    </symbol>
</svg>
